{
	"asset":{
		"generator":"Khronos glTF Blender I/O v5.0.21",
		"version":"2.0"
	},
	"scene":0,
	"scenes":[
		{
			"name":"gist_hall",
			"nodes":[
				0,
				1,
				2,
				3
			]
		}
	],
	"nodes":[
		{
			"mesh":0,
			"name":"terrain-col"
		},
		{
			"mesh":1,
			"name":"Cube",
			"scale":[
				0.04279335215687752,
				0.11117172241210938,
				0.11117172241210938
			],
			"translation":[
				-0.11394208669662476,
				0,
				0
			]
		},
		{
			"mesh":2,
			"name":"Cube.001",
			"scale":[
				0.16141141951084137,
				0.07106989622116089,
				0.05991706624627113
			],
			"translation":[
				0.007804251741617918,
				0,
				-0.06555572152137756
			]
		},
		{
			"mesh":3,
			"name":"Cube.002",
			"scale":[
				0.047150298953056335,
				0.07191681861877441,
				0.07191681861877441
			],
			"translation":[
				0.1201854944229126,
				0,
				0
			]
		}
	],
	"materials":[
		{
			"doubleSided":true,
			"name":"terrain"
		}
	],
	"meshes":[
		{
			"name":"Plane.001",
			"primitives":[
				{
					"attributes":{
						"POSITION":0,
						"NORMAL":1,
						"TEXCOORD_0":2,
						"COLOR_0":3,
						"COLOR_1":4
					},
					"indices":5,
					"material":0
				}
			]
		},
		{
			"name":"Cube",
			"primitives":[
				{
					"attributes":{
						"POSITION":6,
						"NORMAL":7,
						"TEXCOORD_0":8
					},
					"indices":9
				}
			]
		},
		{
			"name":"Cube.001",
			"primitives":[
				{
					"attributes":{
						"POSITION":10,
						"NORMAL":11,
						"TEXCOORD_0":12
					},
					"indices":9
				}
			]
		},
		{
			"name":"Cube.002",
			"primitives":[
				{
					"attributes":{
						"POSITION":13,
						"NORMAL":14,
						"TEXCOORD_0":15
					},
					"indices":9
				}
			]
		}
	],
	"accessors":[
		{
			"bufferView":0,
			"componentType":5126,
			"count":65530,
			"max":[
				0.2582651376724243,
				0.05248327925801277,
				0.2582651376724243
			],
			"min":[
				-0.2582651376724243,
				-0.012264245189726353,
				-0.2582651376724243
			],
			"type":"VEC3"
		},
		{
			"bufferView":1,
			"componentType":5126,
			"count":65530,
			"type":"VEC3"
		},
		{
			"bufferView":2,
			"componentType":5126,
			"count":65530,
			"type":"VEC2"
		},
		{
			"bufferView":3,
			"componentType":5121,
			"count":65530,
			"normalized":true,
			"type":"VEC4"
		},
		{
			"bufferView":4,
			"componentType":5123,
			"count":65530,
			"normalized":true,
			"type":"VEC4"
		},
		{
			"bufferView":5,
			"componentType":5123,
			"count":98304,
			"type":"SCALAR"
		},
		{
			"bufferView":6,
			"componentType":5126,
			"count":24,
			"max":[
				1,
				0.9851703643798828,
				1
			],
			"min":[
				-1,
				-0.8295831680297852,
				-0.964900016784668
			],
			"type":"VEC3"
		},
		{
			"bufferView":7,
			"componentType":5126,
			"count":24,
			"type":"VEC3"
		},
		{
			"bufferView":8,
			"componentType":5126,
			"count":24,
			"type":"VEC2"
		},
		{
			"bufferView":9,
			"componentType":5123,
			"count":36,
			"type":"SCALAR"
		},
		{
			"bufferView":10,
			"componentType":5126,
			"count":24,
			"max":[
				1,
				1.360321044921875,
				1
			],
			"min":[
				-1,
				-1,
				-0.6960812211036682
			],
			"type":"VEC3"
		},
		{
			"bufferView":11,
			"componentType":5126,
			"count":24,
			"type":"VEC3"
		},
		{
			"bufferView":12,
			"componentType":5126,
			"count":24,
			"type":"VEC2"
		},
		{
			"bufferView":13,
			"componentType":5126,
			"count":24,
			"max":[
				1,
				1.2379807233810425,
				1
			],
			"min":[
				-1,
				-1,
				-1.4991817474365234
			],
			"type":"VEC3"
		},
		{
			"bufferView":14,
			"componentType":5126,
			"count":24,
			"type":"VEC3"
		},
		{
			"bufferView":15,
			"componentType":5126,
			"count":24,
			"type":"VEC2"
		}
	],
	"bufferViews":[
		{
			"buffer":0,
			"byteLength":786360,
			"byteOffset":0,
			"target":34962
		},
		{
			"buffer":0,
			"byteLength":786360,
			"byteOffset":786360,
			"target":34962
		},
		{
			"buffer":0,
			"byteLength":524240,
			"byteOffset":1572720,
			"target":34962
		},
		{
			"buffer":0,
			"byteLength":262120,
			"byteOffset":2096960,
			"target":34962
		},
		{
			"buffer":0,
			"byteLength":524240,
			"byteOffset":2359080,
			"target":34962
		},
		{
			"buffer":0,
			"byteLength":196608,
			"byteOffset":2883320,
			"target":34963
		},
		{
			"buffer":0,
			"byteLength":288,
			"byteOffset":3079928,
			"target":34962
		},
		{
			"buffer":0,
			"byteLength":288,
			"byteOffset":3080216,
			"target":34962
		},
		{
			"buffer":0,
			"byteLength":192,
			"byteOffset":3080504,
			"target":34962
		},
		{
			"buffer":0,
			"byteLength":72,
			"byteOffset":3080696,
			"target":34963
		},
		{
			"buffer":0,
			"byteLength":288,
			"byteOffset":3080768,
			"target":34962
		},
		{
			"buffer":0,
			"byteLength":288,
			"byteOffset":3081056,
			"target":34962
		},
		{
			"buffer":0,
			"byteLength":192,
			"byteOffset":3081344,
			"target":34962
		},
		{
			"buffer":0,
			"byteLength":288,
			"byteOffset":3081536,
			"target":34962
		},
		{
			"buffer":0,
			"byteLength":288,
			"byteOffset":3081824,
			"target":34962
		},
		{
			"buffer":0,
			"byteLength":192,
			"byteOffset":3082112,
			"target":34962
		}
	],
	"buffers":[
		{
			"byteLength":3082304,
			"uri":"gist_hall.bin"
		}
	]
}
